<?xml version="1.0" standalone="no"?><!DOCTYPE svg PUBLIC "-//W3C//DTD SVG 1.1//EN" "http://www.w3.org/Graphics/SVG/1.1/DTD/svg11.dtd"><svg t="1608813049298" class="icon" viewBox="0 0 1024 1024" version="1.1" xmlns="http://www.w3.org/2000/svg" p-id="3391" xmlns:xlink="http://www.w3.org/1999/xlink" width="200" height="200"><defs><style type="text/css"></style></defs><path d="M256 256h672v64H256zM256 480h672v64H256zM256 704h672v64H256z" p-id="3392" fill="#8a8a8a"></path><path d="M128 288m-32 0a32 32 0 1 0 64 0 32 32 0 1 0-64 0Z" p-id="3393" fill="#8a8a8a"></path><path d="M128 512m-32 0a32 32 0 1 0 64 0 32 32 0 1 0-64 0Z" p-id="3394" fill="#8a8a8a"></path><path d="M128 736m-32 0a32 32 0 1 0 64 0 32 32 0 1 0-64 0Z" p-id="3395" fill="#8a8a8a"></path></svg>